# xmcd
#
# Track frame offsets:
#	150
#	11410
#	23357
#	33668
#	51404
#	68434
#	82195
#	97257
#	115554
#	133145
#	149688
#	160533
#	181301
#	199035
#
# Disc length: 2815 seconds
#
# Revision: 2
# Processed by: cddbd v1.5.1PL2 Copyright (c) Steve Scherf et al.
# Submitted via: audiograbber 1.83.01
#
DISCID=ba0afd0e
DTITLE=David Childers and The Modern Don Juans - Jailhouse Religion
DYEAR=2006
DGENRE=Alternative Rock
TTITLE0=No pool hall
TTITLE1=Strayaway child
TTITLE2=Jailhouse religion
TTITLE3=Bottom of my bottle
TTITLE4=Roadside parable
TTITLE5=Chains of sadness
TTITLE6=Danse macabre
TTITLE7=The General Belgrano
TTITLE8=Voice of the devil
TTITLE9=Down below
TTITLE10=Peanut
TTITLE11=George Wallace
TTITLE12=Over the limit
TTITLE13=Beatrice in the bushes
EXTD=
EXTT0=
EXTT1=
EXTT2=
EXTT3=
EXTT4=
EXTT5=
EXTT6=
EXTT7=
EXTT8=
EXTT9=
EXTT10=
EXTT11=
EXTT12=
EXTT13=
PLAYORDER=
